<?xml version="1.0" encoding="UTF-8"?> <svg xmlns="http://www.w3.org/2000/svg" xmlns:xlink="http://www.w3.org/1999/xlink" viewBox="0 0 413.86 326.99"><defs><style>.cls-1{isolation:isolate;}.cls-2,.cls-3{fill:#cad0e6;}.cls-2{mix-blend-mode:multiply;}.cls-4{fill:#e1e6f0;}.cls-5{fill:#fff;}.cls-6{fill:url(#New_Gradient_Swatch_copy_10);}.cls-7{fill:#f32735;}.cls-8{fill:#2684ff;}.cls-9{fill:url(#New_Gradient_Swatch_copy_10-2);}.cls-10{fill:url(#New_Gradient_Swatch_copy_10-3);}.cls-11{fill:url(#New_Gradient_Swatch_copy_10-4);}.cls-12{fill:url(#New_Gradient_Swatch_copy_10-5);}.cls-13{fill:#5e64a6;}</style><linearGradient id="New_Gradient_Swatch_copy_10" x1="190.04" y1="74.79" x2="255.36" y2="74.79" gradientUnits="userSpaceOnUse"><stop offset="0" stop-color="#1ad7fd"></stop><stop offset="1" stop-color="#1d62f0"></stop></linearGradient><linearGradient id="New_Gradient_Swatch_copy_10-2" x1="139.22" y1="188.35" x2="180.43" y2="200.16" gradientTransform="matrix(-1, 0, 0, 1, 471.58, 0)" xlink:href="#New_Gradient_Swatch_copy_10"></linearGradient><linearGradient id="New_Gradient_Swatch_copy_10-3" x1="128.83" y1="245.58" x2="169.04" y2="220.8" gradientTransform="matrix(-0.87, -0.5, -0.5, 0.87, 567.2, 106.67)" xlink:href="#New_Gradient_Swatch_copy_10"></linearGradient><linearGradient id="New_Gradient_Swatch_copy_10-4" x1="275.87" y1="250.86" x2="228.38" y2="250.86" gradientTransform="matrix(-1, 0, 0, 1, 471.58, 0)" xlink:href="#New_Gradient_Swatch_copy_10"></linearGradient><linearGradient id="New_Gradient_Swatch_copy_10-5" x1="255.09" y1="243.32" x2="335.49" y2="243.32" gradientTransform="matrix(-1, 0, 0, 1, 471.58, 0)" xlink:href="#New_Gradient_Swatch_copy_10"></linearGradient></defs><title>Asset 16</title><g class="cls-1"><g id="Layer_2" data-name="Layer 2"><g id="Layer_1-2" data-name="Layer 1"><path class="cls-2" d="M386.57,226.16,224.2,319.91a52.81,52.81,0,0,1-52.8,0L9,226.16a18,18,0,0,1,0-31.23L171.4,101.18a52.76,52.76,0,0,1,52.8,0l162.37,93.75A18,18,0,0,1,386.57,226.16Z"></path><path class="cls-3" d="M98.92,96.71A33,33,0,0,1,111,84.64L255,1.53a11.14,11.14,0,0,1,11.26,0l6.6,3.81L106.73,101.22v142.6l-6.6-3.81a11.15,11.15,0,0,1-5.63-9.75V113.19A32.89,32.89,0,0,1,98.92,96.71Z"></path><path class="cls-4" d="M261.55,5.34l-144,83.11A33,33,0,0,0,101.1,117V234.07A11.26,11.26,0,0,0,118,243.82l144-83.11a33,33,0,0,0,16.49-28.55V15.09A11.26,11.26,0,0,0,261.55,5.34Z"></path><path class="cls-5" d="M252.66,19.3,133.36,88.18a17.87,17.87,0,0,0-8.94,15.48V219.92a6.56,6.56,0,0,0,9.84,5.68l119.29-68.87a17.9,17.9,0,0,0,8.94-15.49V25A6.55,6.55,0,0,0,252.66,19.3Z"></path><path class="cls-6" d="M249.14,36.07l-53,30.61A12.15,12.15,0,0,0,190,77.2v32.71a4.15,4.15,0,0,0,6.23,3.59l53-30.61a12.14,12.14,0,0,0,6.07-10.52V39.66A4.14,4.14,0,0,0,249.14,36.07Z"></path><path class="cls-7" d="M203.14,108.94l-53,30.61a12.14,12.14,0,0,0-6.07,10.52v32.71a4.14,4.14,0,0,0,6.22,3.59l53-30.61a12.15,12.15,0,0,0,6.08-10.52V112.53A4.15,4.15,0,0,0,203.14,108.94Z"></path><path class="cls-8" d="M250.26,126.23l-25.2,14.55a5.77,5.77,0,0,0-2.89,5v15.54a2,2,0,0,0,3,1.71l25.2-14.55a5.76,5.76,0,0,0,2.89-5V127.94A2,2,0,0,0,250.26,126.23Z"></path><path class="cls-3" d="M255,83.26c0-1.14-.7-1.66-1.55-1.17L233.3,93.75a3.67,3.67,0,0,0-1.55,3c0,1.15.69,1.67,1.55,1.18l20.19-11.66A3.72,3.72,0,0,0,255,83.26Z"></path><path class="cls-4" d="M244.13,97.78c0-1.14-.7-1.67-1.55-1.17l-20.19,11.65a3.74,3.74,0,0,0-1.55,3c0,1.14.7,1.67,1.55,1.17l20.19-11.65A3.74,3.74,0,0,0,244.13,97.78Z"></path><path class="cls-4" d="M183.29,74.16c0-3.16-1.93-4.61-4.3-3.24l-44.18,25.5c-2.37,1.37-4.29,5-4.29,8.21s1.92,4.61,4.3,3.24L179,82.37C181.36,81,183.29,77.33,183.29,74.16Z"></path><path class="cls-4" d="M229.21,98.17c0-1.14-.7-1.66-1.55-1.17l-5.55,3.2a3.73,3.73,0,0,0-1.54,3c0,1.14.69,1.67,1.54,1.17l5.55-3.2A3.72,3.72,0,0,0,229.21,98.17Z"></path><path class="cls-4" d="M255,91.34c0-1.14-.7-1.67-1.55-1.17l-5.55,3.2a3.72,3.72,0,0,0-1.55,3c0,1.14.7,1.66,1.55,1.17l5.55-3.2A3.72,3.72,0,0,0,255,91.34Z"></path><path class="cls-2" d="M411.13,237.74l-49,28.3a15.93,15.93,0,0,1-15.94,0l-49-28.3a5.44,5.44,0,0,1,0-9.43l49-28.31a16,16,0,0,1,15.94,0l49,28.31A5.44,5.44,0,0,1,411.13,237.74Z"></path><path class="cls-4" d="M346.17,252.69l-49-28.31a5.39,5.39,0,0,1-2.72-4.71V207.29l59.71,34.48v13A16,16,0,0,1,346.17,252.69Z"></path><path class="cls-4" d="M411.13,224.38l-49,28.31a16,16,0,0,1-8,2.13v-13l59.72-34.48v12.38A5.38,5.38,0,0,1,411.13,224.38Z"></path><path class="cls-5" d="M411.13,212l-49,28.3a15.93,15.93,0,0,1-15.94,0l-49-28.3a5.44,5.44,0,0,1,0-9.43l49-28.31a16,16,0,0,1,15.94,0l49,28.31A5.44,5.44,0,0,1,411.13,212Z"></path><path class="cls-2" d="M411.13,212l-49,28.3a15.93,15.93,0,0,1-15.94,0l-49-28.3a5.44,5.44,0,0,1,0-9.43l49-28.31a16,16,0,0,1,15.94,0l49,28.31A5.44,5.44,0,0,1,411.13,212Z"></path><path class="cls-4" d="M346.17,232.56l-49-28.3a5.4,5.4,0,0,1-2.72-4.72V187.17l59.71,34.47V234.7A15.89,15.89,0,0,1,346.17,232.56Z"></path><path class="cls-4" d="M411.13,204.26l-49,28.3a15.86,15.86,0,0,1-8,2.14V221.64l59.72-34.47v12.37A5.39,5.39,0,0,1,411.13,204.26Z"></path><path class="cls-5" d="M411.13,191.88l-49,28.31a16,16,0,0,1-15.94,0l-49-28.31a5.44,5.44,0,0,1,0-9.43l49-28.3a15.93,15.93,0,0,1,15.94,0l49,28.3A5.44,5.44,0,0,1,411.13,191.88Z"></path><path class="cls-2" d="M411.13,191.88l-49,28.31a16,16,0,0,1-15.94,0l-49-28.31a5.44,5.44,0,0,1,0-9.43l49-28.3a15.93,15.93,0,0,1,15.94,0l49,28.3A5.44,5.44,0,0,1,411.13,191.88Z"></path><path class="cls-4" d="M346.17,212.44l-49-28.3a5.42,5.42,0,0,1-2.72-4.72V167l59.71,34.48v13A16,16,0,0,1,346.17,212.44Z"></path><path class="cls-4" d="M411.13,184.14l-49,28.3a16,16,0,0,1-8,2.13v-13L413.86,167v12.38A5.4,5.4,0,0,1,411.13,184.14Z"></path><path class="cls-5" d="M411.13,171.76l-49,28.3a15.93,15.93,0,0,1-15.94,0l-49-28.3a5.44,5.44,0,0,1,0-9.43l49-28.3a15.93,15.93,0,0,1,15.94,0l49,28.3A5.44,5.44,0,0,1,411.13,171.76Z"></path><ellipse class="cls-8" cx="339.26" cy="202.72" rx="2.93" ry="4.02" transform="translate(-55.91 196.79) rotate(-30)"></ellipse><ellipse class="cls-8" cx="329.8" cy="197.26" rx="2.93" ry="4.02" transform="translate(-54.44 191.33) rotate(-30)"></ellipse><path class="cls-9" d="M322.35,195.28c1.4-.81,1.64-3,.53-4.95s-3.14-2.82-4.55-2-1.64,3-.53,4.94S321,196.09,322.35,195.28Z"></path><ellipse class="cls-8" cx="339.26" cy="222.69" rx="2.93" ry="4.02" transform="translate(-65.89 199.46) rotate(-30)"></ellipse><path class="cls-8" d="M331.81,220.7c1.4-.81,1.64-3,.53-4.94s-3.14-2.83-4.55-2-1.64,3-.53,4.94S330.41,221.51,331.81,220.7Z"></path><ellipse class="cls-8" cx="339.26" cy="242.69" rx="2.93" ry="4.02" transform="translate(-75.89 202.14) rotate(-30)"></ellipse><ellipse class="cls-10" cx="320.34" cy="231.77" rx="2.93" ry="4.02" transform="translate(-72.97 191.22) rotate(-30)"></ellipse><path class="cls-2" d="M224.78,260.29l-61.53,35.52a8,8,0,0,1-8,0l-33.05-19.08a3,3,0,0,1,0-5.11l61.53-35.52a8,8,0,0,1,8,0l33.06,19.08A3,3,0,0,1,224.78,260.29Z"></path><path class="cls-11" d="M120.75,253.35h6.62l35.88-20.72,20.5-11.84a8,8,0,0,1,8,0l28,16.19h6.5v5.88a2.92,2.92,0,0,1-1.47,2.55l-61.53,35.52a8,8,0,0,1-8,0l-33.05-19.08a2.93,2.93,0,0,1-1.47-2.62Z"></path><path class="cls-5" d="M224.78,239.53l-61.53,35.52a8,8,0,0,1-8,0L122.22,256a3,3,0,0,1,0-5.1l61.53-35.53a8,8,0,0,1,8,0l33.06,19.09A3,3,0,0,1,224.78,239.53Z"></path><path class="cls-12" d="M215.18,242.28,173.9,266.11a6.64,6.64,0,0,1-6.65,0l-29.86-17.24a2.6,2.6,0,0,1,0-4.51l41.28-23.84a6.64,6.64,0,0,1,6.65,0l29.86,17.24A2.61,2.61,0,0,1,215.18,242.28Z"></path><ellipse class="cls-2" cx="234.74" cy="282.11" rx="16.86" ry="10.99"></ellipse><path class="cls-3" d="M241.76,242.63v19.82a3.46,3.46,0,0,0,6.91,0V242.63a3.46,3.46,0,0,0-6.91,0Z"></path><path class="cls-5" d="M216.22,249.75c0,10.23,8.29,32.36,18.52,32.36s18.51-22.13,18.51-32.36a18.52,18.52,0,0,0-37,0Z"></path><circle class="cls-13" cx="224.26" cy="276.52" r="5.41"></circle><ellipse class="cls-2" cx="234.74" cy="240.32" rx="9.25" ry="6.03"></ellipse><path class="cls-3" d="M220.8,254.73v19.82a3.46,3.46,0,1,0,6.91,0V254.73a3.46,3.46,0,0,0-6.91,0Z"></path><ellipse class="cls-5" cx="234.74" cy="231.04" rx="13.94" ry="10.79"></ellipse><path class="cls-13" d="M244,227.47l-7.59,4.38a6.69,6.69,0,0,0-2.86,6.07c.26,2.3,1.94,3.3,3.77,2.25l7.59-4.39a6.66,6.66,0,0,0,2.86-6.06C247.55,227.42,245.86,226.42,244,227.47Z"></path><path class="cls-5" d="M157.21,167.2l.3,5.27-1.76,1-.3-5.27-4-6.4,1.57-.87a.39.39,0,0,1,.37,0,.69.69,0,0,1,.25.28l2,3.57c.12.22.22.42.31.62a4,4,0,0,1,.25.6c0-.27.1-.55.16-.83s.13-.58.21-.9l1.48-5.5a2.55,2.55,0,0,1,.2-.51.88.88,0,0,1,.36-.38l1.57-.87Z"></path><path class="cls-5" d="M169.16,166l-1.37.76a.41.41,0,0,1-.39.05.64.64,0,0,1-.24-.29l-.87-2.38-4,2.19-.55,3.17a1.78,1.78,0,0,1-.18.5.93.93,0,0,1-.37.39l-1.39.77,3-15.67,1.8-1Zm-3.43-3.39-1.42-3.88c-.07-.17-.14-.38-.22-.62s-.15-.5-.23-.79c0,.35-.09.69-.13,1s-.09.59-.14.82l-.9,5.15Z"></path><path class="cls-5" d="M179.72,146.15l.78,13.6-1.57.86-.5-8.78c0-.35,0-.73,0-1.16L176,160a1.35,1.35,0,0,1-.59.9l-.25.14a.43.43,0,0,1-.66-.21l-3.36-6.13c0,.2.05.4.07.59s0,.38,0,.55l.5,8.78-1.56.86-.78-13.59,1.34-.74.21-.1a.34.34,0,0,1,.16,0,.24.24,0,0,1,.13.05.62.62,0,0,1,.12.17l3.29,6c.08.16.17.33.24.51s.15.36.23.55l.15-.78c0-.25.11-.5.18-.74l2.39-9.09a2.34,2.34,0,0,1,.09-.28.77.77,0,0,1,.13-.2.64.64,0,0,1,.15-.13l.2-.12Z"></path><path class="cls-5" d="M188.1,153.39l.11,2.08-5.59,3.1L181.85,145l1.77-1,.66,11.5Z"></path></g></g></g></svg> 